<?xml version="1.0" encoding="UTF-8" standalone="no"?>
<!-- Created with Inkscape (http://www.inkscape.org/) -->

<svg
   xmlns:dc="http://purl.org/dc/elements/1.1/"
   xmlns:cc="http://creativecommons.org/ns#"
   xmlns:rdf="http://www.w3.org/1999/02/22-rdf-syntax-ns#"
   xmlns:svg="http://www.w3.org/2000/svg"
   xmlns="http://www.w3.org/2000/svg"
   xmlns:sodipodi="http://sodipodi.sourceforge.net/DTD/sodipodi-0.dtd"
   xmlns:inkscape="http://www.inkscape.org/namespaces/inkscape"
   width="212.87624"
   height="67"
   id="svg3034"
   version="1.1"
   inkscape:version="0.48.2 r9819"
   sodipodi:docname="New document 2">
  <defs
     id="defs3036" />
  <sodipodi:namedview
     id="base"
     pagecolor="#ffffff"
     bordercolor="#666666"
     borderopacity="1.0"
     inkscape:pageopacity="0.0"
     inkscape:pageshadow="2"
     inkscape:zoom="0.35"
     inkscape:cx="106.43812"
     inkscape:cy="33.499997"
     inkscape:document-units="px"
     inkscape:current-layer="layer1"
     showgrid="false"
     fit-margin-top="0"
     fit-margin-left="0"
     fit-margin-right="0"
     fit-margin-bottom="0"
     inkscape:window-width="650"
     inkscape:window-height="625"
     inkscape:window-x="543"
     inkscape:window-y="161"
     inkscape:window-maximized="0" />
  <metadata
     id="metadata3039">
    <rdf:RDF>
      <cc:Work
         rdf:about="">
        <dc:format>image/svg+xml</dc:format>
        <dc:type
           rdf:resource="http://purl.org/dc/dcmitype/StillImage" />
        <dc:title></dc:title>
      </cc:Work>
    </rdf:RDF>
  </metadata>
  <g
     inkscape:label="Layer 1"
     inkscape:groupmode="layer"
     id="layer1"
     transform="translate(-268.56188,-498.86218)">
    <g
       transform="translate(-164.59375,-400.48614)"
       id="g4364">
      <path
         style="font-size:40px;font-style:normal;font-variant:normal;font-weight:bold;font-stretch:normal;line-height:125%;letter-spacing:0px;word-spacing:0px;fill:none;stroke:#378525;stroke-width:3.5;stroke-linecap:round;stroke-linejoin:miter;stroke-miterlimit:4;stroke-opacity:1;stroke-dasharray:none;font-family:Dosis;-inkscape-font-specification:Dosis Bold"
         d="m 594.03191,933.34832 8.97158,9.03861"
         id="path4019"
         inkscape:connector-curvature="0"
         sodipodi:nodetypes="cc" />
      <path
         style="font-size:40px;font-style:normal;font-variant:normal;font-weight:bold;font-stretch:normal;line-height:125%;letter-spacing:0px;word-spacing:0px;fill:none;stroke:#378525;stroke-width:3;stroke-linecap:round;stroke-linejoin:miter;stroke-miterlimit:4;stroke-opacity:1;stroke-dasharray:none;font-family:Dosis;-inkscape-font-specification:Dosis Bold"
         d="m 594.53189,932.84832 31.99989,0"
         id="path4021"
         inkscape:connector-curvature="0"
         sodipodi:nodetypes="cc" />
      <path
         sodipodi:nodetypes="cc"
         inkscape:connector-curvature="0"
         id="path4023"
         d="m 627.03212,932.34832 -10.97168,-11.0386"
         style="font-size:40px;font-style:normal;font-variant:normal;font-weight:bold;font-stretch:normal;line-height:125%;letter-spacing:0px;word-spacing:0px;fill:none;stroke:#378525;stroke-width:3.5;stroke-linecap:round;stroke-linejoin:miter;stroke-miterlimit:4;stroke-opacity:1;stroke-dasharray:none;font-family:Dosis;-inkscape-font-specification:Dosis Bold" />
      <path
         inkscape:connector-curvature="0"
         style="font-size:40px;font-style:normal;font-variant:normal;font-weight:bold;font-stretch:normal;line-height:125%;letter-spacing:0px;word-spacing:0px;fill:#4bb12b;fill-opacity:1;stroke:none;font-family:Dosis;-inkscape-font-specification:Dosis Bold"
         d="m 610.00062,899.34832 c -3.04323,3e-5 -5.49226,0.77694 -7.3125,2.34375 -1.79187,1.56689 -2.65625,4.04744 -2.65625,7.4375 l 0,8.4375 c 0,3.39009 0.86438,5.87065 2.65625,7.4375 1.82024,1.56684 4.26927,2.34375 7.3125,2.34375 3.04332,0 5.46092,-0.77691 7.28125,-2.34375 1.82025,-1.56685 2.75,-4.04741 2.75,-7.4375 l 0,-8.4375 c 0,-3.39006 -0.92975,-5.87061 -2.75,-7.4375 -1.82033,-1.56681 -4.23793,-2.34372 -7.28125,-2.34375 z m 0.0312,5 c 3.47213,0 5,1.50514 5,4.78125 l 0,2.21875 -10,0 0,-2.21875 c 0,-3.27611 1.52786,-4.78125 5,-4.78125 z m 0,10 c 1.10801,0 2,0.66639 2,1.5 l 0,3.21875 c 0,0.55751 -0.40424,1.02125 -1,1.28125 l 0,2.5 c 0,0.27266 -0.44595,0.5 -1,0.5 -0.55396,0 -1,-0.22734 -1,-0.5 l 0,-2.5 c -0.59576,-0.26 -1,-0.72374 -1,-1.28125 l 0,-3.21875 c 0,-0.83361 0.89208,-1.5 2,-1.5 z"
         id="path4027" />
      <path
         inkscape:connector-curvature="0"
         style="font-size:40px;font-style:normal;font-variant:normal;font-weight:bold;font-stretch:normal;line-height:125%;letter-spacing:0px;word-spacing:0px;fill:#4bb12b;fill-opacity:1;stroke:none;font-family:Dosis;-inkscape-font-specification:Dosis Bold"
         d="m 636.00062,917.34832 c -3.04323,3e-5 -5.49225,0.77694 -7.3125,2.34375 -1.79187,1.56688 -2.65625,4.04744 -2.65625,7.4375 l 0,8.4375 c 0,3.39009 0.86438,5.87066 2.65625,7.4375 1.82025,1.56684 4.26927,2.34375 7.3125,2.34375 3.04332,0 5.46092,-0.77691 7.28125,-2.34375 1.82025,-1.56684 2.75,-4.04741 2.75,-7.4375 l 0,-8.4375 c 0,-3.39006 -0.92975,-5.87062 -2.75,-7.4375 -1.82033,-1.56681 -4.23793,-2.34372 -7.28125,-2.34375 z m 0.0312,5 c 3.47214,0 5,1.50515 5,4.78125 l 0,2.21875 -10,0 0,-2.21875 c 0,-3.2761 1.52786,-4.78125 5,-4.78125 z m 0,10 c 1.10801,0 2,0.66639 2,1.5 l 0,3.21875 c 0,0.5575 -0.40424,1.02126 -1,1.28125 l 0,2.5 c 0,0.27266 -0.44595,0.5 -1,0.5 -0.55396,0 -1,-0.22734 -1,-0.5 l 0,-2.5 c -0.59576,-0.25999 -1,-0.72375 -1,-1.28125 l 0,-3.21875 c 0,-0.83361 0.89208,-1.5 2,-1.5 z"
         id="path4029" />
      <path
         inkscape:connector-curvature="0"
         style="font-size:40px;font-style:normal;font-variant:normal;font-weight:bold;font-stretch:normal;line-height:125%;letter-spacing:0px;word-spacing:0px;fill:#4bb12b;fill-opacity:1;stroke:none;font-family:Dosis;-inkscape-font-specification:Dosis Bold"
         d="m 610.00062,938.34832 c -3.04323,3e-5 -5.49226,0.77694 -7.3125,2.34375 -1.79187,1.56689 -2.65625,4.04744 -2.65625,7.4375 l 0,8.4375 c 0,3.39009 0.86438,5.87065 2.65625,7.4375 1.82024,1.56684 4.26927,2.34375 7.3125,2.34375 3.04332,0 5.46092,-0.77691 7.28125,-2.34375 1.82025,-1.56685 2.75,-4.04741 2.75,-7.4375 l 0,-8.4375 c 0,-3.39006 -0.92975,-5.87061 -2.75,-7.4375 -1.82033,-1.56681 -4.23793,-2.34372 -7.28125,-2.34375 z m 0.0312,5 c 3.47213,0 5,1.50514 5,4.78125 l 0,2.21875 -10,0 0,-2.21875 c 0,-3.27611 1.52786,-4.78125 5,-4.78125 z m 0,10 c 1.10801,0 2,0.66639 2,1.5 l 0,3.21875 c 0,0.55751 -0.40424,1.02125 -1,1.28125 l 0,2.5 c 0,0.27266 -0.44595,0.5 -1,0.5 -0.55396,0 -1,-0.22734 -1,-0.5 l 0,-2.5 c -0.59576,-0.26 -1,-0.72374 -1,-1.28125 l 0,-3.21875 c 0,-0.83361 0.89208,-1.5 2,-1.5 z"
         id="path4031" />
      <path
         style="font-size:40px;font-style:normal;font-variant:normal;font-weight:bold;font-stretch:normal;line-height:125%;letter-spacing:0px;word-spacing:0px;fill:#ffffff;fill-opacity:1;stroke:none;font-family:Dosis;-inkscape-font-specification:Dosis Bold"
         inkscape:connector-curvature="0"
         id="path4035"
         d="m 433.15563,928.99495 c 0,-0.73172 0.46564,-1.34703 1.39696,-1.84598 0.9313,-0.53215 1.86261,-0.79823 2.79392,-0.79826 0.96455,3e-5 1.57988,0.34926 1.84598,1.04773 l 4.98914,13.76289 3.74185,-11.91692 c 0.26606,-0.86477 0.99781,-1.29714 2.19522,-1.29717 1.19738,3e-5 1.92911,0.4324 2.19522,1.29717 l 3.69195,11.96681 5.03904,-13.81278 c 0.26606,-0.69847 0.88137,-1.0477 1.84597,-1.04773 0.89803,3e-5 1.81269,0.26611 2.74403,0.79826 0.93128,0.5322 1.39692,1.16415 1.39696,1.89588 -4e-5,0.36589 -0.0667,0.66524 -0.19957,0.89804 l -7.68326,19.35074 c -0.29938,0.76499 -1.14753,1.1475 -2.54446,1.1475 -1.46351,0 -2.34492,-0.38251 -2.64425,-1.1475 l -3.84163,-10.87632 -3.79176,10.82642 c -0.29936,0.79826 -1.21402,1.1974 -2.74402,1.1974 -1.3637,0 -2.19523,-0.39914 -2.49456,-1.1974 l -7.68326,-19.30084 c -0.16631,-0.33258 -0.24947,-0.64856 -0.24947,-0.94794"
         sodipodi:nodetypes="cccccccccccccccscccsccc" />
      <path
         style="font-size:40px;font-style:normal;font-variant:normal;font-weight:bold;font-stretch:normal;line-height:125%;letter-spacing:0px;word-spacing:0px;fill:#ffffff;fill-opacity:1;stroke:none;font-family:Dosis;-inkscape-font-specification:Dosis Bold"
         inkscape:connector-curvature="0"
         id="path4037"
         d="m 468.82804,940.11362 0,-4.24077 c 0,-2.72738 1.06437,-4.60353 3.19305,-6.56594 2.12871,-1.96237 4.70642,-2.94356 7.73317,-2.94359 2.82717,3e-5 5.23857,0.89807 7.23425,2.69413 2.02889,1.76285 3.04335,3.52257 3.04336,6.21669 -1e-5,0.99785 -0.13306,1.82937 -0.39913,2.49458 -0.23283,0.63197 -0.61534,1.08099 -1.14749,1.34707 -0.49894,0.26609 -0.96458,0.43238 -1.39695,0.4989 -0.43242,0.0665 -0.99786,0.0998 -1.69632,0.0998 l -10.12795,0 0,0.74837 c 0,1.43023 0.53216,2.59436 1.59652,3.4924 1.06434,0.86479 2.47794,1.29717 4.24078,1.29717 1.2639,0 2.51118,-0.31597 3.74184,-0.94794 1.23065,-0.63194 2.02891,-0.94792 2.39479,-0.94793 0.69847,1e-5 1.28052,0.33262 1.7462,0.99783 0.46562,0.63195 0.69846,1.24728 0.69847,1.84599 -1e-5,0.9313 -0.84817,1.8626 -2.54446,2.7939 -1.66304,0.89805 -3.74187,1.34707 -6.23641,1.34707 -3.55893,0 -6.46925,-0.93131 -8.73099,-2.79392 -2.22848,-1.89586 -3.34273,-4.37379 -3.34273,-7.4338 m 13.72013,-4.19088 c 0.53217,1e-5 0.89803,-0.0832 1.09761,-0.24946 0.23281,-0.19955 -0.22518,-4.30505 -4.0412,-4.30511 -4.65549,8e-5 -4.6941,4.55457 -4.6941,4.55457"
         sodipodi:nodetypes="cscccccccscscscccccscccccc" />
      <path
         style="font-size:40px;font-style:normal;font-variant:normal;font-weight:bold;font-stretch:normal;line-height:125%;letter-spacing:0px;word-spacing:0px;fill:#ffffff;fill-opacity:1;stroke:none;font-family:Dosis;-inkscape-font-specification:Dosis Bold"
         inkscape:connector-curvature="0"
         id="path4039"
         d="m 493.34469,947.84677 0,-33.4771 c 0,-0.59865 0.28272,-1.08094 0.84815,-1.44685 0.59869,-0.36583 1.36369,-0.54877 2.295,-0.54881 0.93131,4e-5 1.71294,0.18298 2.34489,0.54881 0.63196,0.36591 0.94794,0.8482 0.94794,1.44685 l 0,15.77154 c 0.56545,-1.06434 1.39695,-1.96238 2.49461,-2.69413 1.13086,-0.73173 2.42804,-1.09759 3.89152,-1.09762 2.42805,3e-5 4.50679,0.99786 6.23642,2.99348 1.76276,1.99568 2.64419,4.37383 2.64419,7.13447 l 0,3.63621 c 0,2.69413 -0.88143,5.07228 -2.64419,7.13446 -1.76284,2.06217 -3.79176,3.09326 -6.08673,3.09326 -1.4968,0 -2.89373,-0.3825 -4.19091,-1.1475 -1.29718,-0.79827 -2.21187,-1.72957 -2.74404,-2.79391 l 0,1.44684 c 0,0.49891 -0.29934,0.96457 -0.89804,1.39696 -0.56544,0.4324 -1.23066,0.64859 -1.99566,0.64859 -0.89804,0 -1.6464,-0.19957 -2.24511,-0.59869 -0.59869,-0.43241 -0.89804,-0.91468 -0.89804,-1.44686 m 6.43598,-6.83511 c 0,0.63196 0.44902,1.4136 1.34711,2.34489 0.93126,0.89805 1.97899,1.34707 3.14308,1.34707 1.1642,0 2.17861,-0.46565 3.04342,-1.39696 0.86472,-0.96456 1.29718,-2.02891 1.29718,-3.19304 l 0,-3.63621 c 0,-1.16412 -0.43246,-2.1952 -1.29718,-3.09327 -0.86481,-0.93128 -1.89592,-1.39694 -3.09325,-1.39696 -1.13087,2e-5 -2.16199,0.41579 -3.09325,1.2473 -0.89809,0.83153 -1.34711,1.91251 -1.34711,3.24293 l 0,4.53425"
         sodipodi:nodetypes="cscccsccccsscsccscsccccscsscccsc" />
      <path
         style="font-size:40px;font-style:normal;font-variant:normal;font-weight:bold;font-stretch:normal;line-height:125%;letter-spacing:0px;word-spacing:0px;fill:#ffffff;fill-opacity:1;stroke:none;font-family:Dosis;-inkscape-font-specification:Dosis Bold"
         inkscape:connector-curvature="0"
         id="path4041"
         d="m 518.2196,944.34231 c 0,-0.765 0.28277,-1.52999 0.84821,-2.295 0.59866,-0.79825 1.26395,-1.19738 1.99569,-1.19739 0.43236,10e-6 0.91465,0.19959 1.44677,0.59869 0.56544,0.39915 1.09765,0.84817 1.59656,1.34706 0.53221,0.46568 1.28056,0.89806 2.24513,1.29718 0.96458,0.39913 2.02892,0.5987 3.19302,0.5987 1.59654,0 2.92695,-0.36586 3.99127,-1.0976 1.06434,-0.73174 1.59656,-1.81272 1.59656,-3.24295 0,-0.99781 -0.29938,-1.87922 -0.89804,-2.64425 -0.56544,-0.79824 -1.3304,-1.44682 -2.29497,-1.94576 -0.93135,-0.53214 -1.96247,-1.03106 -3.09325,-1.49674 -1.13097,-0.49889 -2.27846,-1.0477 -3.44256,-1.64641 -1.13087,-0.59869 -2.17859,-1.2639 -3.14317,-1.99565 -0.93126,-0.765 -1.69631,-1.76282 -2.29498,-2.99348 -0.56543,-1.26389 -0.84819,-2.69412 -0.84819,-4.29066 0,-1.7628 0.3493,-3.30944 1.04772,-4.6399 0.73173,-1.36366 1.69631,-2.41139 2.89373,-3.14316 1.19741,-0.76496 2.47797,-1.31375 3.8416,-1.6464 1.3637,-0.36585 2.81057,-0.54877 4.34059,-0.54881 0.86481,4e-5 1.77946,0.0666 2.74404,0.19956 0.96457,0.0998 1.97898,0.28276 3.04332,0.54881 1.09765,0.26612 1.97907,0.68188 2.64427,1.24728 0.69852,0.56547 1.04773,1.23069 1.04773,1.99565 0,0.73178 -0.23285,1.49678 -0.69852,2.29501 -0.46568,0.76503 -1.09756,1.14752 -1.89583,1.1475 -0.29938,2e-5 -1.11427,-0.31595 -2.44466,-0.94793 -1.3305,-0.63194 -2.81058,-0.94791 -4.44035,-0.94794 -1.79608,3e-5 -3.19302,0.34925 -4.19091,1.04771 -0.96457,0.66525 -1.44686,1.59656 -1.44686,2.79393 0,0.96458 0.39914,1.81272 1.19741,2.54446 0.79828,0.69849 1.77946,1.28057 2.94365,1.74618 1.19733,0.43242 2.47789,0.99786 3.84161,1.69632 1.39694,0.66524 2.6775,1.39697 3.8416,2.19521 1.1974,0.79828 2.1952,1.96242 2.99349,3.49241 0.79827,1.49674 1.1974,3.25957 1.1974,5.28847 0,3.45915 -1.09765,5.95987 -3.29286,7.85573 -2.16189,1.86261 -5.0224,2.79392 -8.58124,2.79392 -3.15988,0 -5.87059,-0.64859 -8.13235,-1.94577 -2.26175,-1.29717 -3.39263,-2.53397 -3.39263,-4.06398"
         sodipodi:nodetypes="cccccssssccccccscccccccscccccscccccscssc" />
      <path
         style="font-size:40px;font-style:normal;font-variant:normal;font-weight:bold;font-stretch:normal;line-height:125%;letter-spacing:0px;word-spacing:0px;fill:#ffffff;fill-opacity:1;stroke:none;font-family:Dosis;-inkscape-font-specification:Dosis Bold"
         inkscape:connector-curvature="0"
         id="path4043"
         d="m 544.2372,944.34231 c 0,-0.765 0.28277,-1.52999 0.84821,-2.295 0.59866,-0.79825 1.26386,-1.19738 1.99559,-1.19739 0.43237,10e-6 0.91466,0.19959 1.44687,0.59869 0.56544,0.39915 1.09756,0.84817 1.59655,1.34706 0.53212,0.46568 1.28047,0.89806 2.24505,1.29718 0.96457,0.39913 2.02891,0.5987 3.1931,0.5987 1.59646,0 2.92695,-0.36586 3.99128,-1.0976 1.06434,-0.73174 1.59656,-1.81272 1.59656,-3.24295 0,-0.99781 -0.29938,-1.87922 -0.89804,-2.64425 -0.56553,-0.79824 -1.33049,-1.44682 -2.29507,-1.94576 -0.93126,-0.53214 -1.96237,-1.03106 -3.09325,-1.49674 -1.13087,-0.49889 -2.27836,-1.0477 -3.44246,-1.64641 -1.13087,-0.59869 -2.17859,-1.2639 -3.14317,-1.99565 -0.93135,-0.765 -1.69631,-1.76282 -2.29498,-2.99348 -0.56552,-1.26389 -0.84819,-2.69412 -0.84819,-4.29066 0,-1.7628 0.34921,-3.30944 1.04772,-4.6399 0.73173,-1.36366 1.69631,-2.41139 2.89372,-3.14316 1.19733,-0.76496 2.47789,-1.31375 3.84161,-1.6464 1.3637,-0.36585 2.81057,-0.54877 4.34058,-0.54881 0.86473,4e-5 1.77937,0.0666 2.74405,0.19956 0.96448,0.0998 1.97898,0.28276 3.04331,0.54881 1.09757,0.26612 1.97898,0.68188 2.64428,1.24728 0.69842,0.56547 1.04763,1.23069 1.04772,1.99565 -9e-5,0.73178 -0.23293,1.49678 -0.69851,2.29501 -0.46568,0.76503 -1.09765,1.14752 -1.89583,1.1475 -0.29938,2e-5 -1.11427,-0.31595 -2.44466,-0.94793 -1.3305,-0.63194 -2.81058,-0.94791 -4.44036,-0.94794 -1.79616,3e-5 -3.1931,0.34925 -4.1909,1.04771 -0.96457,0.66525 -1.44686,1.59656 -1.44686,2.79393 0,0.96458 0.39914,1.81272 1.19741,2.54446 0.79828,0.69849 1.77947,1.28057 2.94356,1.74618 1.19742,0.43242 2.47798,0.99786 3.84169,1.69632 1.39694,0.66524 2.67741,1.39697 3.84161,2.19521 1.1974,0.79828 2.1952,1.96242 2.99348,3.49241 0.79828,1.49674 1.19732,3.25957 1.19741,5.28847 -9e-5,3.45915 -1.09765,5.95987 -3.29286,7.85573 -2.16199,1.86261 -5.0224,2.79392 -8.58133,2.79392 -3.15978,0 -5.87051,-0.64859 -8.13226,-1.94577 -2.26175,-1.29717 -3.39263,-2.53397 -3.39263,-4.06398"
         sodipodi:nodetypes="ccccccsssccccccscccccccccccccscccccccssc" />
      <path
         style="font-size:40px;font-style:normal;font-variant:normal;font-weight:bold;font-stretch:normal;line-height:125%;letter-spacing:0px;word-spacing:0px;fill:#ffffff;fill-opacity:1;stroke:none;font-family:Dosis;-inkscape-font-specification:Dosis Bold"
         inkscape:connector-curvature="0"
         id="path4045"
         d="m 571.12237,938.92501 0,-14.14066 c 0,-3.95802 1.07011,-6.85171 3.21033,-8.68109 2.17419,-1.82932 5.07875,-2.744 8.71373,-2.74403 3.63496,3e-5 6.53952,0.91471 8.71373,2.74403 2.17417,1.82938 3.26127,4.72307 3.26127,8.68109 l 0,14.14066 c 0,3.95806 -1.0871,6.85177 -3.26127,8.6811 -2.17421,1.82935 -5.07877,2.74403 -8.71373,2.74403 -3.63498,0 -6.53954,-0.91468 -8.71373,-2.74403 -2.14022,-1.82933 -3.21033,-4.72304 -3.21033,-8.6811 m 6.62447,0 c 0,3.82502 1.76653,5.73751 5.29959,5.73751 3.56701,0 5.35053,-1.91249 5.35053,-5.73751 l 0,-14.14066 c 0,-3.82497 -1.78352,-5.73747 -5.35053,-5.7375 -3.53306,3e-5 -5.29959,1.91253 -5.29959,5.7375 l 0,14.14066"
         sodipodi:nodetypes="cscccsssscccssscsc" />
    </g>
  </g>
</svg>
